<?xml version="1.0" encoding="UTF-8"?>
<!DOCTYPE svg PUBLIC "-//W3C//DTD SVG 1.1//EN" "http://www.w3.org/Graphics/SVG/1.1/DTD/svg11.dtd">
<!-- Creator: CorelDRAW -->
<svg xmlns="http://www.w3.org/2000/svg" xml:space="preserve" width="36.1602mm" height="7mm" style="shape-rendering:geometricPrecision; text-rendering:geometricPrecision; image-rendering:optimizeQuality; fill-rule:evenodd; clip-rule:evenodd"
viewBox="0 0 3.50405 0.678325"
 xmlns:xlink="http://www.w3.org/1999/xlink">
 <defs>
  <style type="text/css">
   <![CDATA[
    .fil1 {fill:#1F1A17}
    .fil0 {fill:black}
    .fil3 {fill:#1F1A17;fill-rule:nonzero}
    .fil2 {fill:#84C225;fill-rule:nonzero}
   ]]>
  </style>
 </defs>
 <g id="Слой_x0020_1">
  <metadata id="CorelCorpID_0Corel-Layer"/>
  <path class="fil0" d="M0.2178 0.103726l-0.000184117 0.00760692 0.00119191 0.0116187c0.0327243,0 0.0555451,-0.0147875 0.072009,-0.0312417 0.00834339,-0.00834339 0.016241,-0.0186733 0.021813,-0.0298075 0.00478703,-0.00958376 0.0109598,-0.0267066 0.0109598,-0.040651l0 -0.0212509c-0.0128688,0 -0.0318619,0.00682201 -0.0408254,0.0112989 -0.0112505,0.00563009 -0.0219874,0.0137991 -0.030418,0.02222 -0.0144677,0.0144677 -0.0345461,0.0419495 -0.0345461,0.0702066z"/>
  <path class="fil1" d="M0.208488 0.135074c-0.0973493,0 -0.108057,0.0913122 -0.131779,0.162497 -0.0121129,0.0363485 -0.0265031,0.0720381 -0.0428217,0.104317 -0.0413681,0.0818253 -0.0601092,0.180144 0.0347496,0.23751 0.0730168,0.0441492 0.166519,0.0488103 0.246765,0.0237607 0.0213285,-0.00665727 0.0401277,-0.0166093 0.0569793,-0.0280729 0.0551284,-0.037492 0.0682394,-0.0883566 0.0602061,-0.140907 -0.0101458,0.00385676 -0.0210184,0.00595957 -0.0323464,0.00595957 -0.0547602,0 -0.099171,-0.0489169 -0.099171,-0.10923 0,-0.0431124 0.0226851,-0.0804105 0.0556323,-0.0981729 -0.00493239,-0.0152235 -0.00988416,-0.0310188 -0.0150879,-0.0464555 -0.0178399,-0.0528318 -0.0385773,-0.111206 -0.107476,-0.111206 -0.00906048,0 -0.0169872,0 -0.0256504,0z"/>
  <path class="fil2" d="M0.545702 0.210959l0.186956 0c0.0342941,0 0.062309,0.0108629 0.084151,0.0327049 0.0218324,0.0218324 0.0327049,0.0521438 0.0327049,0.0911281 0,0.0389843 -0.0101749,0.068598 -0.030418,0.0888411 -0.0202335,0.0202335 -0.0490526,0.0303017 -0.0864379,0.0303017l-0.133213 0 0 0.156645 -0.0537427 0 0 -0.39962zm0.0537427 0.0443624l0 0.154251 0.121546 0c0.0218324,0 0.0388874,-0.00618244 0.0513492,-0.0186442 0.014051,-0.0140607 0.0210377,-0.0328018 0.0210377,-0.0561362 0,-0.0265225 -0.00618244,-0.0459613 -0.0186442,-0.0584328 -0.0140607,-0.014051 -0.0319103,-0.0210377 -0.0537427,-0.0210377l-0.121546 0zm0.317766 -0.0443624l0.257143 0 0 0.0443624 -0.203304 0 0 0.123843 0.189243 0 0 0.044469 -0.189243 0 0 0.142477 0.214971 0 0 0.044469 -0.26881 0 0 -0.39962zm0.306099 0.39962l0.158931 -0.40431 0.0467656 0 0.158931 0.40431 -0.0561362 0 -0.0490526 -0.121546 -0.154251 0 -0.0490526 0.121546 -0.0561362 0zm0.182266 -0.327233l-0.0607197 0.161325 0.121536 0 -0.0608166 -0.161325zm0.238392 -0.0747804l0.196326 0c0.031106,0 0.0568242,0.0101652 0.0770674,0.0304083 0.02034,0.0202431 0.0304083,0.0482579 0.0304083,0.084151 0,0.0357962 -0.0100683,0.063811 -0.0304083,0.084151 -0.0108629,0.0108726 -0.0264159,0.0178496 -0.046659,0.0210377l0.0911281 0.179872 -0.0584231 0 -0.084151 -0.172895 -0.121546 0 0 0.172895 -0.0537427 0 0 -0.39962zm0.0537427 0.044469l0 0.137894 0.137894 0c0.015553,0 0.0288191,-0.00548474 0.0397789,-0.0164542 0.0108726,-0.0108726 0.0163573,-0.0280148 0.0163573,-0.0513492 0,-0.0218324 -0.00627935,-0.0389843 -0.0187508,-0.0514461 -0.0124618,-0.0124618 -0.0272105,-0.0186442 -0.0443624,-0.0186442l-0.130917 0z"/>
  <path class="fil3" d="M2.04116 0.316148c0,-0.0296137 0.0109598,-0.0553416 0.0327049,-0.0771739 0.0218324,-0.0218324 0.0553319,-0.0327049 0.100499,-0.0327049 0.0483548,0 0.0849456,0.0124618 0.109879,0.0373951 0.0218324,0.0218324 0.0327049,0.0475602 0.0327049,0.0770674l-0.0537427 0c0,-0.0186442 -0.00628904,-0.0341972 -0.0187508,-0.046659 -0.0139541,-0.0140607 -0.0357962,-0.0210377 -0.0654002,-0.0210377 -0.0327049,0 -0.0553416,0.00618244 -0.0678034,0.0186442 -0.0108726,0.0109695 -0.0163476,0.0234313 -0.0163476,0.0373854 0,0.0140607 0.00318813,0.024129 0.00937057,0.030418 0.00777166,0.00777166 0.0218324,0.015553 0.0420755,0.0233247 0.0357962,0.0156596 0.0763696,0.0334995 0.121536,0.0537427 0.0124618,0.00469013 0.024129,0.0124618 0.0350015,0.0234313 0.0171422,0.0171519 0.0257182,0.0373854 0.0257182,0.0607197 0,0.0312126 -0.0108629,0.0576285 -0.0326952,0.0794706 -0.0233344,0.0233247 -0.061524,0.0350888 -0.114462,0.0350888 -0.0514558,0 -0.0911377,-0.014051 -0.119249,-0.0420755 -0.0202431,-0.0202335 -0.0303114,-0.0498472 -0.0303114,-0.0888314l0.0537427 0c0,0.0280148 0.00618244,0.0482579 0.0186442,0.0607197 0.0171422,0.0171519 0.0436647,0.0257182 0.0794609,0.0257182 0.0327049,0 0.0568339,-0.00777166 0.0724838,-0.0233247 0.0124715,-0.0124618 0.0186442,-0.0249333 0.0186442,-0.0373951 0,-0.014051 -0.00468044,-0.0257182 -0.014051,-0.0350984 -0.00778135,-0.00777166 -0.0202431,-0.015553 -0.0373951,-0.0233247 -0.015553,-0.00778135 -0.0357962,-0.0171519 -0.0607197,-0.0280148 -0.0280148,-0.0124715 -0.0506515,-0.0226367 -0.0677937,-0.030418 -0.0124715,-0.00468044 -0.0233344,-0.0116575 -0.0327049,-0.0210377 -0.0139638,-0.014051 -0.0210377,-0.0326952 -0.0210377,-0.0560296zm0.357545 -0.105189l0.0537427 0 0 0.168205 0.191636 0 0 -0.168205 0.0537427 0 0 0.39962 -0.0537427 0 0 -0.186946 -0.191636 0 0 0.186946 -0.0537427 0 0 -0.39962zm0.376296 0.198613c0,-0.0654099 0.0186442,-0.116856 0.0560296,-0.154251 0.0327049,-0.0326952 0.0724935,-0.0490526 0.119153,-0.0490526 0.0467559,0 0.0865445,0.0163573 0.119249,0.0490526 0.0373854,0.0373951 0.0560296,0.0888411 0.0560296,0.154251 0,0.0654002 -0.0186442,0.116856 -0.0560296,0.154241 -0.0327049,0.0327049 -0.0724935,0.0490526 -0.119249,0.0490526 -0.046659,0 -0.0864476,-0.0163476 -0.119153,-0.0490526 -0.0373854,-0.0373854 -0.0560296,-0.0888411 -0.0560296,-0.154241zm0.175182 -0.158931c-0.0295168,0 -0.0560393,0.0116672 -0.079364,0.0350984 -0.0265225,0.0264159 -0.0397886,0.0677937 -0.0397886,0.123833 0,0.0561362 0.0132661,0.0974074 0.0397886,0.123833 0.0233247,0.0234313 0.0498472,0.0350984 0.079364,0.0350984 0.0296137,0 0.0561362,-0.0116672 0.0794609,-0.0350984 0.0265225,-0.0264256 0.0397886,-0.0676968 0.0397886,-0.123833 0,-0.0560393 -0.0132661,-0.0974171 -0.0397886,-0.123833 -0.0233247,-0.0234313 -0.0498472,-0.0350984 -0.0794609,-0.0350984zm0.250059 -0.039682l0.186956 0c0.0342941,0 0.062309,0.0108629 0.084151,0.0327049 0.0218324,0.0218324 0.0327049,0.0521438 0.0327049,0.0911281 0,0.0389843 -0.0101749,0.068598 -0.030418,0.0888411 -0.0202335,0.0202335 -0.0490526,0.0303017 -0.0864379,0.0303017l-0.133213 0 0 0.156645 -0.0537427 0 0 -0.39962zm0.0537427 0.0443624l0 0.154251 0.121546 0c0.0218324,0 0.0388874,-0.00618244 0.0513492,-0.0186442 0.014051,-0.0140607 0.0210377,-0.0328018 0.0210377,-0.0561362 0,-0.0265225 -0.00618244,-0.0459613 -0.0186442,-0.0584328 -0.0140607,-0.014051 -0.0319103,-0.0210377 -0.0537427,-0.0210377l-0.121546 0z"/>
 </g>
</svg>
