<?xml version="1.0" encoding="UTF-8"?>
<!DOCTYPE svg PUBLIC "-//W3C//DTD SVG 1.1//EN" "http://www.w3.org/Graphics/SVG/1.1/DTD/svg11.dtd">
<!-- Creator: CorelDRAW -->
<svg xmlns="http://www.w3.org/2000/svg" xml:space="preserve" width="26.2994mm" height="7mm" style="shape-rendering:geometricPrecision; text-rendering:geometricPrecision; image-rendering:optimizeQuality; fill-rule:evenodd; clip-rule:evenodd"
viewBox="0 0 1.85353 0.493347"
 xmlns:xlink="http://www.w3.org/1999/xlink">
 <defs>
  <style type="text/css">
   <![CDATA[
    .fil0 {fill:black}
    .fil1 {fill:#1F1A17}
    .fil3 {fill:#1F1A17;fill-rule:nonzero}
    .fil2 {fill:#84C225;fill-rule:nonzero}
   ]]>
  </style>
 </defs>
 <g id="Слой_x0020_1">
  <metadata id="CorelCorpID_0Corel-Layer"/>
  <path class="fil0" d="M0.158407 0.0754398l-0.000133908 0.00553253 0.000866881 0.00845033c0.0238005,0 0.0403981,-0.010755 0.0523723,-0.0227222 0.00606817,-0.00606817 0.0118121,-0.0135811 0.0158646,-0.0216791 0.00348162,-0.00697029 0.00797108,-0.0194238 0.00797108,-0.0295656l0 -0.0154559c-0.0093595,0 -0.0231732,0.00496166 -0.0296924,0.00821775 -0.00818251,0.00409478 -0.0159915,0.0100361 -0.0221231,0.0161606 -0.0105224,0.0105224 -0.0251255,0.03051 -0.0251255,0.0510614z"/>
  <path class="fil1" d="M0.151634 0.0982395c-0.0708023,0 -0.0785902,0.0664116 -0.0958432,0.118185 -0.00880977,0.0264364 -0.0192758,0.0523935 -0.0311443,0.0758697 -0.0300871,0.0595117 -0.0437176,0.131019 0.0252735,0.172742 0.0531053,0.0321098 0.12111,0.0354998 0.179473,0.0172812 0.0155122,-0.00484185 0.029185,-0.01208 0.0414412,-0.0204175 0.040095,-0.027268 0.0496307,-0.064262 0.0437881,-0.102482 -0.00737906,0.00280503 -0.0152867,0.00433441 -0.0235256,0.00433441 -0.0398272,0 -0.0721273,-0.0355774 -0.0721273,-0.079443 0,-0.0313557 0.0164989,-0.0584828 0.0404615,-0.0714014 -0.00358734,-0.0110721 -0.00718877,-0.0225601 -0.0109734,-0.0337872 -0.012975,-0.0384247 -0.0280574,-0.0808807 -0.0781673,-0.0808807 -0.00658971,0 -0.0123548,0 -0.0186556,0z"/>
  <path class="fil2" d="M0.47054 0.253468c0.0179649,0 0.0323636,0.00429212 0.0432947,0.0128834 0.0120588,0.00956388 0.0181058,0.0234269 0.0181058,0.0415892 0,0.0179578 -0.00604703,0.0314333 -0.0181552,0.0404122 -0.0105435,0.00780898 -0.0249916,0.0117135 -0.0433441,0.0117135l-0.0286987 0 0 0.0863921 0.0158153 0 0 0.0046868 -0.0784845 0 0 -0.0046868 0.0155193 0 0 -0.188304 -0.0155193 0 0 -0.0046868 0.0914665 0zm-0.0182538 0.101911c0.0121011,0 0.0206008,-0.00390449 0.0254779,-0.0117135 0.00488414,-0.00780898 0.00732268,-0.0197198 0.00732268,-0.0357254 0,-0.0167949 -0.00243854,-0.0289947 -0.00732268,-0.0366134 -0.0056594,-0.00878158 -0.015033,-0.0131724 -0.0281137,-0.0131724l-0.00790765 0 0 0.0972246 0.0105435 0zm0.204704 0.0292837c-0.00195224,0 -0.00292484,-0.00175491 -0.00292484,-0.00526472 -0.00214958,-0.0197198 -0.0103532,-0.0295797 -0.0246039,-0.0295797l-0.0178662 0 0 0.0966396 0.0278248 0c0.0169852,0 0.029185,-0.00507443 0.0366063,-0.0152303 0.0046868,-0.0064417 0.00897892,-0.0187401 0.0128834,-0.0368953 0.000592016,-0.00312923 0.00186062,-0.0046868 0.00381287,-0.0046868 0.00195224,0 0.00292484,0.00155757 0.00292484,0.0046868l0 0.0480238c0,0.00312923 -0.000535634,0.00537043 -0.0016069,0.00673771 -0.00107832,0.00136728 -0.00317856,0.00205091 -0.00630075,0.00205091l-0.139103 0 0 -0.0046868 0.0158082 0 0 -0.188304 -0.0161043 0 0 -0.0046868 0.127396 0c0.00624436,0 0.00936655,0.00273455 0.00936655,0.00819661l0.00234692 0.0424631c0,0.00254426 -0.000979646,0.00381287 -0.00293189,0.00381287 -0.00195224,0 -0.00292484,-0.00126861 -0.00292484,-0.00381287 0,-0.0119038 -0.00410183,-0.0223486 -0.0123055,-0.0313346 -0.00897892,-0.00976122 -0.0206924,-0.0146383 -0.0351404,-0.0146383l-0.022553 0 0 0.0869771 0.0178662 0c0.0142507,0 0.0224543,-0.00985989 0.0246039,-0.0295797 0,-0.00351686 0.000972598,-0.00527177 0.00292484,-0.00527177 0.00195224,0 0.00293189,0.00175491 0.00293189,0.00527177l0 0.0638462c0,0.00350981 -0.000979646,0.00526472 -0.00293189,0.00526472zm0.140287 -0.132957l0.0202061 0 0.0644241 0.194752 0.0158153 0 0 0.0046868 -0.0787805 0 0 -0.0046868 0.0158153 0 -0.0190361 -0.0565235 -0.0585673 0 -0.0122984 0.0392493c-0.000782307,0.00214254 -0.00117699,0.00439079 -0.00117699,0.00673066 0,0.00273455 0.000979646,0.00498281 0.00293189,0.00673771 0.00292484,0.00253721 0.00742135,0.00380582 0.0134684,0.00380582l0 0.0046868 -0.044218 0 0 -0.0046868c0.00605407,0 0.0108818,-0.00136728 0.0144974,-0.00410183 0.00360848,-0.0027275 0.00619503,-0.0064417 0.00775964,-0.0111285l0.0591594 -0.179522zm-0.0111285 0.0497858l-0.0269931 0.0837633 0.0551069 0 -0.0281137 -0.0837633zm0.278797 0.117149c0,0.0074143 0.000683638,0.0129327 0.00204387,0.0165412 0.00136728,0.00361553 0.00429917,0.00541977 0.00878862,0.00541977 0.0056594,0 0.0114245,-0.00497576 0.0172812,-0.0149343 0.00136728,-0.00253721 0.00253721,-0.00380582 0.00350981,-0.00380582 0.000979646,0.000782307 0.00146595,0.00136728 0.00146595,0.00175491l-0.00116994 0.00380582c-0.00410183,0.00917625 -0.0100079,0.0161113 -0.0177182,0.0207911 -0.00771031,0.0046868 -0.015766,0.00703372 -0.0241599,0.00703372 -0.0121081,0 -0.0212844,-0.00312218 -0.0275288,-0.00937359 -0.00702667,-0.00722401 -0.0105435,-0.0187401 -0.0105435,-0.0345554l0 -0.0196211c0,-0.0152303 -0.00234692,-0.0258725 -0.00702667,-0.0319266 -0.00390449,-0.00507443 -0.0102546,-0.00761164 -0.0190361,-0.00761164l-0.0149414 0 0 0.0942998 0.0172812 0 0 0.0046868 -0.0802394 0 0 -0.0046868 0.0158082 0 0 -0.188304 -0.0158082 0 0 -0.0046868 0.0907829 0c0.0203048,0 0.0360707,0.00424278 0.0472979,0.0127354 0.0112272,0.00849262 0.0168372,0.0211364 0.0168372,0.0379243 0,0.0146454 -0.00527177,0.0259712 -0.0158153,0.0339775 -0.00780898,0.00604703 -0.0184512,0.0102475 -0.0319196,0.0125874 0.014448,0.00176195 0.0255272,0.00663904 0.0332375,0.0146454 0.00771031,0.00800632 0.0115725,0.0176689 0.0115725,0.0289947l0 0.0243079zm-0.0781955 -0.0711688c0.00995856,0 0.0176689,-0.00233987 0.023138,-0.00702667 0.00799927,-0.00702667 0.0120024,-0.0192335 0.0120024,-0.0366063 0,-0.0185498 -0.00390449,-0.0313346 -0.0117135,-0.0383683 -0.00546206,-0.00487709 -0.0132781,-0.00731563 -0.0234269,-0.00731563l-0.0108395 0 0 0.089317 0.0108395 0z"/>
  <path class="fil3" d="M1.25289 0.251417c0.000979646,-0.00175491 0.00195224,-0.00263588 0.00293189,-0.00263588 0.000972598,0 0.0014589,0.000972598 0.0014589,0.00292484l0 0.0492008c0,0.00293189 -0.000584969,0.00439784 -0.00175491,0.00439784 -0.000972598,0 -0.00185358,-0.00136728 -0.00263588,-0.00410183 -0.0046868,-0.0171826 -0.0120095,-0.0295797 -0.021961,-0.0371913 -0.00780898,-0.00585673 -0.0171826,-0.00878862 -0.0281208,-0.00878862 -0.0103462,0 -0.0183948,0.00307285 -0.0241599,0.00922559 -0.00575806,0.00615274 -0.00863357,0.0135177 -0.00863357,0.022109 0,0.0148427 0.0056594,0.0243079 0.0169852,0.0284097 0.00467975,0.00155757 0.00976122,0.00302351 0.0152233,0.00439079 0.0054691,0.00136728 0.0111285,0.00253721 0.0169852,0.00351686 0.0351475,0.00663904 0.0527177,0.0283111 0.0527177,0.0650161 0,0.0181552 -0.0056594,0.0334771 -0.0169852,0.0459729 -0.0124958,0.0138631 -0.0296783,0.0207981 -0.0515407,0.0207981 -0.0128905,0 -0.0239203,-0.00224825 -0.0330965,-0.00673771 -0.00527177,-0.00253721 -0.0111285,-0.00683638 -0.0175702,-0.0128834l-0.00907759 0.0137644c-0.00176195,0.0027275 -0.00331952,0.00409478 -0.0046868,0.00409478 -0.00156461,0 -0.00233987,-0.00155757 -0.00233987,-0.0046868l0 -0.0573974c0,-0.00312218 0.000584969,-0.0046868 0.00175491,-0.0046868 0.000972598,0 0.00185358,0.00136728 0.00263588,0.00410183 0.0046868,0.0173729 0.0111285,0.0307496 0.0193251,0.0401232 0.0109382,0.0126861 0.0252876,0.0190361 0.0430551,0.0190361 0.013271,0 0.0239132,-0.00439784 0.0319196,-0.0131794 0.00682933,-0.00742135 0.0102475,-0.015618 0.0102475,-0.0246039 0,-0.00839395 -0.00165624,-0.0150823 -0.00497576,-0.0200581 -0.00331952,-0.00497576 -0.00947226,-0.00873929 -0.0184512,-0.0112765 -0.00136728,-0.00038763 -0.00702667,-0.00170557 -0.0169852,-0.00395382 -0.00995856,-0.00224121 -0.0183525,-0.00434145 -0.0251889,-0.0062937 -0.0146383,-0.00410183 -0.0253792,-0.0107902 -0.0322085,-0.0200651 -0.00683638,-0.00926788 -0.0102546,-0.0210307 -0.0102546,-0.0352884 0,-0.0173729 0.0054691,-0.0321169 0.0164003,-0.044218 0.0122984,-0.0136657 0.0286,-0.0205021 0.0489048,-0.0205021 0.00917625,0 0.0177675,0.00146595 0.0257739,0.00439079 0.00605407,0.00214958 0.0116148,0.00498281 0.0166963,0.00849262l0.00761164 -0.0114175zm0.120363 0.00175491l0 0.0046868 -0.0158153 0 0 0.0846372 0.0550575 0 0 -0.0846372 -0.0158082 0 0 -0.0046868 0.0787734 0 0 0.0046868 -0.0158153 0 0 0.1886 0.0169923 0 0 0.0046868 -0.0799504 0 0 -0.0046868 0.0158082 0 0 -0.0975206 -0.0550575 0 0 0.0975206 0.0158153 0 0 0.0046868 -0.0787734 0 0 -0.0046868 0.0155193 0 0 -0.1886 -0.0155193 0 0 -0.0046868 0.0787734 0zm0.121244 0.0989866c0,-0.0277261 0.00780898,-0.051153 0.0234269,-0.0702879 0.0173799,-0.0212774 0.0409971,-0.0319196 0.0708728,-0.0319196 0.0296783,0 0.053204,0.0106422 0.0705768,0.0319196 0.0158153,0.0193322 0.0237229,0.0427591 0.0237229,0.0702879 0,0.0279164 -0.00780898,0.051449 -0.0234269,0.0705768 -0.0173799,0.0212844 -0.0410042,0.0319266 -0.0708728,0.0319266 -0.0296783,0 -0.053204,-0.0106422 -0.0705768,-0.0319266 -0.0158153,-0.0193251 -0.0237229,-0.0428507 -0.0237229,-0.0705768zm0.0942998 -0.0969356c-0.015618,0 -0.0258232,0.0059554 -0.0306016,0.0178662 -0.00478547,0.0119108 -0.00717468,0.0333855 -0.00717468,0.0644241l0 0.0292907c0,0.0335758 0.00229054,0.0557412 0.00687867,0.066475 0.00458813,0.0107409 0.014885,0.0161113 0.0308976,0.0161113 0.0160056,0 0.0263095,-0.00541977 0.0308976,-0.0162593 0.00458813,-0.0108325 0.00687867,-0.0329415 0.00687867,-0.066327l0 -0.0292907c0,-0.0312359 -0.00214958,-0.0522243 -0.0064417,-0.0629581 -0.00507443,-0.0128905 -0.0155193,-0.0193322 -0.0313346,-0.0193322zm0.203337 -0.00175491c0.0179649,0 0.0323636,0.00429212 0.0432947,0.0128834 0.0120588,0.00956388 0.0181058,0.0234269 0.0181058,0.0415892 0,0.0179578 -0.00604703,0.0314333 -0.0181552,0.0404122 -0.0105435,0.00780898 -0.0249916,0.0117135 -0.0433441,0.0117135l-0.0286987 0 0 0.0863921 0.0158153 0 0 0.0046868 -0.0784845 0 0 -0.0046868 0.0155193 0 0 -0.188304 -0.0155193 0 0 -0.0046868 0.0914665 0zm-0.0182538 0.101911c0.0121011,0 0.0206008,-0.00390449 0.0254779,-0.0117135 0.00488414,-0.00780898 0.00732268,-0.0197198 0.00732268,-0.0357254 0,-0.0167949 -0.00243854,-0.0289947 -0.00732268,-0.0366134 -0.0056594,-0.00878158 -0.015033,-0.0131724 -0.0281137,-0.0131724l-0.00790765 0 0 0.0972246 0.0105435 0z"/>
 </g>
</svg>
